<?xml version="1.0" encoding="utf-8"?>
<!-- Generator: Adobe Illustrator 16.0.0, SVG Export Plug-In . SVG Version: 6.00 Build 0)  -->
<!DOCTYPE svg PUBLIC "-//W3C//DTD SVG 1.1//EN" "http://www.w3.org/Graphics/SVG/1.1/DTD/svg11.dtd">
<svg version="1.1" id="Layer_1" xmlns="http://www.w3.org/2000/svg" xmlns:xlink="http://www.w3.org/1999/xlink" x="0px" y="0px"
	 width="152px" height="152px" viewBox="0 0 152 152" enable-background="new 0 0 152 152" xml:space="preserve">
<g>
	<path fill="#ACACAC" d="M15.896,91.682c0,33.136,26.955,60.115,60.116,60.115s60.116-26.954,60.116-60.115
		c0-26.296-17.201-49.527-42.104-57.355c0.101-0.405,0.177-0.836,0.177-1.267c0-1.216-0.456-2.305-1.165-3.167l14.617-13.579
		c0.025-0.025,0.051-0.076,0.102-0.126c0.076-0.076,0.126-0.152,0.177-0.228s0.102-0.177,0.151-0.253
		c0.025-0.05,0.051-0.076,0.076-0.126s0-0.076,0.025-0.127c0.025-0.101,0.051-0.203,0.051-0.278c0-0.102,0.025-0.177,0.025-0.279
		c0-0.101-0.025-0.177-0.025-0.279c-0.025-0.101-0.025-0.203-0.076-0.278c0-0.025,0-0.076-0.025-0.102
		c-0.025-0.051-0.051-0.101-0.075-0.152c-0.051-0.102-0.102-0.177-0.152-0.253s-0.126-0.152-0.177-0.228
		c-0.051-0.051-0.076-0.101-0.127-0.126L92.555,0.659C92.429,0.532,92.277,0.456,92.1,0.38c0,0-0.025,0-0.051,0
		c-0.203-0.076-0.431-0.126-0.658-0.152c-0.025,0-0.051-0.025-0.102-0.025H75.962H60.635c-0.025,0-0.051,0.025-0.101,0.025
		c-0.228,0-0.456,0.051-0.659,0.152c-0.025,0-0.025,0-0.051,0c-0.152,0.076-0.304,0.152-0.431,0.279L44.422,13.478
		c-0.051,0.05-0.076,0.101-0.101,0.126c-0.076,0.076-0.127,0.152-0.203,0.228c-0.051,0.076-0.102,0.152-0.152,0.253
		c-0.025,0.05-0.05,0.101-0.076,0.152c-0.025,0.025-0.025,0.076-0.025,0.102c-0.025,0.101-0.051,0.177-0.076,0.278
		c-0.025,0.102-0.025,0.178-0.025,0.279c0,0.102,0,0.177,0.025,0.279c0.025,0.101,0.025,0.203,0.051,0.304
		c0,0.051,0,0.076,0.025,0.127s0.051,0.076,0.076,0.126c0.051,0.102,0.076,0.177,0.152,0.253c0.051,0.076,0.101,0.152,0.177,0.228
		c0.025,0.025,0.051,0.076,0.101,0.126l14.618,13.579c-0.709,0.861-1.166,1.951-1.166,3.167c0,0.431,0.051,0.861,0.177,1.267
		C33.073,42.155,15.896,65.385,15.896,91.682z M89.389,28.095c-0.076,0-0.152-0.025-0.229-0.025h-3.724l5.472-11.248h10.615
		L89.389,28.095z M81.206,28.069H70.819l-5.472-11.248h21.331L81.206,28.069z M92.15,10.69l0.607-4.864l8.436,7.195h-9.348
		L92.15,10.69z M89.16,4.002l-0.887,6.992l-7.473-6.992H89.16z M84.879,13.021H67.095l8.892-8.31L84.879,13.021z M71.199,4.002
		l-7.473,6.992l-0.887-6.992H71.199z M59.242,5.827l0.912,7.195h-9.348L59.242,5.827z M50.502,16.821h10.615l5.472,11.248h-3.724
		c-0.076,0-0.152,0.025-0.228,0.025L50.502,16.821z M61.396,37.291c0.684-0.177,1.216-0.734,1.368-1.444
		c0.152-0.709-0.101-1.418-0.659-1.875c-0.177-0.127-0.456-0.431-0.456-0.938c0-0.659,0.532-1.216,1.216-1.216h26.321
		c0.659,0,1.217,0.532,1.217,1.216c0,0.481-0.279,0.785-0.457,0.938c-0.557,0.456-0.811,1.165-0.658,1.875s0.684,1.241,1.368,1.444
		c24.548,6.612,41.698,28.956,41.698,54.366c0,31.059-25.257,56.316-56.315,56.316s-56.316-25.258-56.316-56.316
		C19.697,66.272,36.822,43.903,61.396,37.291z"/>
	<path fill="#ACACAC" d="M75.987,138.852c26.018,0,47.171-21.152,47.171-47.17s-21.153-47.171-47.171-47.171
		c-26.017,0-47.17,21.153-47.17,47.171C28.842,117.699,49.995,138.852,75.987,138.852z M75.987,48.311
		c23.915,0,43.37,19.456,43.37,43.371c0,23.914-19.455,43.37-43.37,43.37c-23.915,0-43.371-19.456-43.371-43.37
		C32.617,67.767,52.073,48.311,75.987,48.311z"/>
</g>
</svg>
