<?xml version="1.0" encoding="utf-8"?>
<!-- Generator: Adobe Illustrator 16.0.0, SVG Export Plug-In . SVG Version: 6.00 Build 0)  -->
<!DOCTYPE svg PUBLIC "-//W3C//DTD SVG 1.1//EN" "http://www.w3.org/Graphics/SVG/1.1/DTD/svg11.dtd">
<svg version="1.1" id="Layer_1" xmlns="http://www.w3.org/2000/svg" xmlns:xlink="http://www.w3.org/1999/xlink" x="0px" y="0px"
	 width="152px" height="152px" viewBox="0 0 152 152" enable-background="new 0 0 152 152" xml:space="preserve">
<g>
	<path fill="#ACACAC" d="M151.975,46.929c-0.025-0.076-0.051-0.153-0.102-0.229c-0.076-0.153-0.179-0.28-0.28-0.407
		c-0.051-0.051-0.103-0.127-0.153-0.178c-0.025-0.025-0.025-0.051-0.051-0.076L114.783,14.93c-0.153-0.127-0.306-0.229-0.484-0.306
		c-0.025,0-0.025,0-0.051-0.025c-0.203-0.102-0.458-0.153-0.713-0.153c-0.025,0-0.076-0.025-0.102-0.025H76.115H38.821
		c-0.025,0-0.051,0.025-0.102,0.025c-0.255,0-0.509,0.051-0.738,0.153c0,0-0.025,0-0.051,0c-0.178,0.077-0.331,0.178-0.484,0.306
		L0.866,46.038c-0.026,0.025-0.026,0.051-0.051,0.076c-0.051,0.051-0.102,0.127-0.152,0.178C0.56,46.42,0.458,46.547,0.382,46.7
		c-0.025,0.076-0.076,0.153-0.102,0.229c-0.076,0.178-0.102,0.382-0.127,0.56c0,0.051-0.025,0.077-0.025,0.127v11.379
		c0,0.051,0.025,0.076,0.025,0.127c0,0.204,0.051,0.382,0.102,0.56c0.025,0.051,0.025,0.127,0.077,0.178
		c0.102,0.204,0.229,0.407,0.382,0.585l0.025,0.025l0,0l73.875,76.445c0.025,0.025,0.076,0.051,0.102,0.077
		c0.051,0.051,0.127,0.127,0.178,0.152c0.025,0.025,0.025,0.051,0.051,0.051l0,0c0.077,0.051,0.153,0.076,0.255,0.127
		c0.051,0.025,0.127,0.051,0.178,0.076c0.051,0.025,0.076,0.051,0.127,0.051c0.204,0.051,0.408,0.076,0.611,0.076
		s0.407-0.025,0.611-0.076c0.051-0.025,0.076-0.051,0.128-0.051c0.076-0.025,0.127-0.051,0.178-0.076
		c0.076-0.051,0.178-0.076,0.254-0.127l0,0c0.025-0.025,0.025-0.025,0.051-0.051c0.077-0.051,0.128-0.102,0.179-0.152
		c0.025-0.026,0.076-0.026,0.103-0.077l73.873-76.445l0,0l0.026-0.025c0.178-0.178,0.28-0.382,0.382-0.585
		c0.025-0.051,0.051-0.127,0.076-0.178c0.051-0.178,0.102-0.356,0.102-0.56c0-0.051,0.025-0.077,0.025-0.127V47.616
		c0-0.051-0.025-0.077-0.025-0.127C152.076,47.311,152.051,47.107,151.975,46.929z M147.927,56.908h-36.352v-7.179h36.352V56.908z
		 M4.328,49.729h36.352v7.179H4.328V49.729z M76.115,19.385l28.028,26.144H48.087L76.115,19.385z M44.854,56.908v-7.179h62.521
		v7.179H44.854z M115.037,20.632l29.301,24.896h-32.482L115.037,20.632z M111.066,18.621l-3.131,24.693L81.461,18.621H111.066z
		 M70.794,18.621L44.319,43.314l-3.131-24.693H70.794z M37.217,20.632l3.157,24.896H7.917L37.217,20.632z M7.153,61.083h34.213
		l28.18,64.583L7.153,61.083z M45.974,61.083h60.306l-30.166,69.14L45.974,61.083z M82.682,125.666l28.155-64.558h34.214
		L82.682,125.666z"/>
</g>
</svg>
